<svg xmlns="http://www.w3.org/2000/svg" viewBox="0 0 1100 850" font-family="Segoe UI, Arial, sans-serif">
  <defs>
    <marker id="arrow" viewBox="0 0 10 10" refX="9" refY="5" markerWidth="6" markerHeight="6" orient="auto">
      <path d="M0,0 L10,5 L0,10 Z" fill="#475569"/>
    </marker>
    <filter id="shadow" x="-5%" y="-5%" width="110%" height="110%">
      <feDropShadow dx="0" dy="2" stdDeviation="3" flood-opacity="0.12"/>
    </filter>
  </defs>

  <rect width="1100" height="850" fill="#FFFFFF"/>

  <!-- ═══════════ LAYER 3: DATA (bottom) ═══════════ -->
  <rect x="30" y="590" width="1040" height="230" rx="8" fill="#F1F5F9" stroke="#CBD5E1" stroke-width="1"/>
  <text x="50" y="618" font-size="14" font-weight="bold" fill="#475569">DATA LAYER</text>

  <rect x="380" y="635" width="340" height="165" rx="8" fill="#2563EB" filter="url(#shadow)"/>
  <text x="400" y="665" font-size="16" font-weight="bold" fill="#FFFFFF">ELASTICSEARCH 8.12.0</text>
  <text x="400" y="685" font-size="11" fill="#BFDBFE">Port 9200 — Single node, no auth</text>

  <rect x="400" y="700" width="145" height="80" rx="5" fill="#FBBF24" stroke="#D97706" stroke-width="1"/>
  <text x="410" y="720" font-size="10" font-weight="bold" fill="#92400E">attack-logs-*</text>
  <text x="410" y="738" font-size="9" fill="#92400E">Attack records +</text>
  <text x="410" y="752" font-size="9" fill="#92400E">Claude AI analysis</text>

  <rect x="555" y="700" width="145" height="80" rx="5" fill="#FBBF24" stroke="#D97706" stroke-width="1"/>
  <text x="565" y="720" font-size="10" font-weight="bold" fill="#92400E">falco-events-*</text>
  <text x="565" y="738" font-size="9" fill="#92400E">Falco syscall</text>
  <text x="565" y="752" font-size="9" fill="#92400E">detection alerts</text>

  <!-- ═══════════ LAYER 2: CONTAINER PLATFORM (middle) ═══════════ -->
  <rect x="30" y="160" width="1040" height="430" rx="8" fill="#FAFBFC" stroke="#CBD5E1" stroke-width="1"/>
  <rect x="30" y="160" width="1040" height="430" rx="8" fill="none" stroke="#CBD5E1" stroke-width="1.5" stroke-dasharray="6,4"/>
  <text x="50" y="188" font-size="14" font-weight="bold" fill="#475569">CONTAINER PLATFORM</text>
  <text x="50" y="206" font-size="10" fill="#94A3B8">Docker Compose | Network: pentest-net (bridge)</text>

  <!-- Phase 2 badge -->
  <rect x="800" y="175" width="250" height="24" rx="12" fill="#FEF2C0" stroke="#D97706" stroke-width="1"/>
  <text x="810" y="191" font-size="9" font-weight="bold" fill="#92400E">PHASE 2: docker compose --profile attack up -d attacker</text>

  <!-- AI Attacker -->
  <rect x="50" y="230" width="180" height="120" rx="6" fill="#DC2626" filter="url(#shadow)"/>
  <text x="70" y="258" font-size="14" font-weight="bold" fill="#FFFFFF">AI ATTACKER</text>
  <line x1="70" y1="265" x2="215" y2="265" stroke="#EF4444" stroke-width="1"/>
  <text x="70" y="284" font-size="11" fill="#FECACA">Claude-Powered</text>
  <text x="70" y="302" font-size="11" fill="#FECACA">10 Attack Scenarios</text>
  <text x="70" y="325" font-size="10" fill="#FCA5A5" font-style="italic">Phase 2 only</text>

  <!-- Vuln App -->
  <rect x="310" y="230" width="210" height="120" rx="6" fill="#EA580C" filter="url(#shadow)"/>
  <text x="330" y="258" font-size="14" font-weight="bold" fill="#FFFFFF">VULNERABLE WEB APP</text>
  <line x1="330" y1="265" x2="505" y2="265" stroke="#F97316" stroke-width="1"/>
  <text x="330" y="284" font-size="11" fill="#FED7AA">Flask 3.0 — Port 8080</text>
  <text x="330" y="302" font-size="11" fill="#FED7AA">Live Metrics + Attack Feed</text>
  <text x="330" y="325" font-size="10" fill="#FDBA74" font-style="italic">CAP_SYS_ADMIN, seccomp unconfined, docker.sock mounted</text>

  <!-- Falco -->
  <rect x="600" y="230" width="180" height="120" rx="6" fill="#7C3AED" filter="url(#shadow)"/>
  <text x="620" y="258" font-size="14" font-weight="bold" fill="#FFFFFF">FALCO</text>
  <line x1="620" y1="265" x2="765" y2="265" stroke="#A855F7" stroke-width="1"/>
  <text x="620" y="284" font-size="11" fill="#DDD6FE">Runtime Security</text>
  <text x="620" y="302" font-size="11" fill="#DDD6FE">20+ Custom Rules (MITRE-tagged)</text>
  <text x="620" y="325" font-size="10" fill="#C4B5FD" font-style="italic">Privileged, host /proc + /boot mounted</text>

  <!-- Kibana -->
  <rect x="840" y="230" width="210" height="120" rx="6" fill="#2563EB" filter="url(#shadow)"/>
  <text x="860" y="258" font-size="14" font-weight="bold" fill="#FFFFFF">KIBANA 8.12.0</text>
  <line x1="860" y1="265" x2="1035" y2="265" stroke="#60A5FA" stroke-width="1"/>
  <text x="860" y="284" font-size="11" fill="#BFDBFE">Visualization — Port 5601</text>
  <text x="860" y="302" font-size="11" fill="#BFDBFE">Data Views: Attack Logs + Falco Events</text>

  <!-- Falcosidekick -->
  <rect x="600" y="420" width="180" height="90" rx="6" fill="#7C3AED" filter="url(#shadow)"/>
  <text x="620" y="448" font-size="14" font-weight="bold" fill="#FFFFFF">FALCOSIDEKICK</text>
  <text x="620" y="470" font-size="11" fill="#DDD6FE">Event Forwarder</text>
  <text x="620" y="488" font-size="11" fill="#DDD6FE">Port 2801 (webhook) + 2802 (UI)</text>

  <!-- Security Dashboard -->
  <rect x="310" y="420" width="210" height="90" rx="6" fill="#059669" filter="url(#shadow)"/>
  <text x="330" y="448" font-size="14" font-weight="bold" fill="#FFFFFF">SECURITY DASHBOARD</text>
  <text x="330" y="470" font-size="11" fill="#A7F3D0">Flask 3.0 — Port 5000</text>
  <text x="330" y="488" font-size="11" fill="#A7F3D0">Reports + Remediation Agent (SSE)</text>

  <!-- Auto Setup -->
  <rect x="840" y="420" width="210" height="90" rx="6" fill="#6B7280" stroke="#9CA3AF" stroke-width="2" stroke-dasharray="6,3" filter="url(#shadow)"/>
  <text x="860" y="448" font-size="14" font-weight="bold" fill="#FFFFFF">AUTO SETUP (init-setup)</text>
  <text x="860" y="470" font-size="11" fill="#D1D5DB">One-time — profile: setup</text>
  <text x="860" y="488" font-size="11" fill="#D1D5DB">Creates templates + data views</text>

  <!-- ═══════════ LAYER 1: USER ACCESS (top) ═══════════ -->
  <rect x="30" y="20" width="1040" height="140" rx="8" fill="#F8FAFC" stroke="#CBD5E1" stroke-width="1"/>
  <text x="50" y="48" font-size="14" font-weight="bold" fill="#475569">USER ACCESS LAYER</text>
  <text x="50" y="66" font-size="10" fill="#94A3B8">Browser-based interfaces — all accessible at http://localhost:&lt;port&gt;</text>

  <rect x="50" y="78" width="175" height="65" rx="5" fill="#FFFFFF" stroke="#CBD5E1" stroke-width="1"/>
  <text x="65" y="98" font-size="11" font-weight="bold" fill="#EA580C">Web App UI</text>
  <text x="65" y="116" font-size="10" fill="#64748B">:8080</text>

  <rect x="255" y="78" width="175" height="65" rx="5" fill="#FFFFFF" stroke="#CBD5E1" stroke-width="1"/>
  <text x="270" y="98" font-size="11" font-weight="bold" fill="#059669">Dashboard UI</text>
  <text x="270" y="116" font-size="10" fill="#64748B">:5000</text>

  <rect x="460" y="78" width="175" height="65" rx="5" fill="#FFFFFF" stroke="#CBD5E1" stroke-width="1"/>
  <text x="475" y="98" font-size="11" font-weight="bold" fill="#2563EB">Kibana UI</text>
  <text x="475" y="116" font-size="10" fill="#64748B">:5601</text>

  <rect x="665" y="78" width="175" height="65" rx="5" fill="#FFFFFF" stroke="#CBD5E1" stroke-width="1"/>
  <text x="680" y="98" font-size="11" font-weight="bold" fill="#2563EB">ES API</text>
  <text x="680" y="116" font-size="10" fill="#64748B">:9200</text>

  <rect x="870" y="78" width="175" height="65" rx="5" fill="#FFFFFF" stroke="#CBD5E1" stroke-width="1"/>
  <text x="885" y="98" font-size="11" font-weight="bold" fill="#7C3AED">FalcoSidekick UI</text>
  <text x="885" y="116" font-size="10" fill="#64748B">:2802</text>

  <!-- ═══════════ ARROWS ═══════════ -->

  <!-- ① AI Attacker → Vuln Web App -->
  <line x1="230" y1="280" x2="308" y2="280" stroke="#DC2626" stroke-width="2.5" marker-end="url(#arrow)"/>
  <rect x="236" y="268" width="42" height="16" rx="8" fill="#DC2626"/>
  <text x="240" y="280" font-size="9" font-weight="bold" fill="#FFFFFF">①</text>
  <text x="246" y="305" font-size="9" fill="#DC2626">Live events</text>
  <text x="246" y="316" font-size="8" fill="#94A3B8">POST /api/attack-event</text>

  <!-- ② Vuln Web App → Falco -->
  <line x1="520" y1="280" x2="598" y2="280" stroke="#7C3AED" stroke-width="2" stroke-dasharray="6,3" marker-end="url(#arrow)"/>
  <rect x="528" y="268" width="42" height="16" rx="8" fill="#7C3AED"/>
  <text x="532" y="280" font-size="9" font-weight="bold" fill="#FFFFFF">②</text>
  <text x="534" y="305" font-size="9" fill="#7C3AED">Syscalls</text>
  <text x="534" y="316" font-size="8" fill="#94A3B8">(kernel)</text>

  <!-- ③ Falco → Falcosidekick -->
  <line x1="690" y1="350" x2="690" y2="418" stroke="#7C3AED" stroke-width="2.5" marker-end="url(#arrow)"/>
  <rect x="669" y="375" width="42" height="16" rx="8" fill="#7C3AED"/>
  <text x="673" y="387" font-size="9" font-weight="bold" fill="#FFFFFF">③</text>
  <text x="715" y="388" font-size="9" fill="#7C3AED">Alerts</text>

  <!-- ④ Falcosidekick → ES -->
  <line x1="690" y1="510" x2="600" y2="633" stroke="#2563EB" stroke-width="2.5" marker-end="url(#arrow)"/>
  <rect x="635" y="560" width="42" height="16" rx="8" fill="#2563EB"/>
  <text x="639" y="572" font-size="9" font-weight="bold" fill="#FFFFFF">④</text>
  <text x="680" y="570" font-size="9" fill="#2563EB">Index falco-events-*</text>

  <!-- ⑤ AI Attacker → ES -->
  <path d="M 140 350 L 140 540 L 460 633" fill="none" stroke="#DC2626" stroke-width="2" stroke-dasharray="8,4" marker-end="url(#arrow)"/>
  <rect x="105" y="530" width="42" height="16" rx="8" fill="#DC2626"/>
  <text x="109" y="542" font-size="9" font-weight="bold" fill="#FFFFFF">⑤</text>
  <text x="150" y="540" font-size="9" fill="#DC2626">Push logs + AI analysis</text>
  <text x="150" y="552" font-size="8" fill="#94A3B8">attack-logs-* index</text>

  <!-- ⑥ ES → Kibana -->
  <path d="M 720 680 L 890 490 L 945 350" fill="none" stroke="#2563EB" stroke-width="2.5" marker-end="url(#arrow)"/>
  <rect x="860" y="525" width="42" height="16" rx="8" fill="#2563EB"/>
  <text x="864" y="537" font-size="9" font-weight="bold" fill="#FFFFFF">⑥</text>
  <text x="905" y="535" font-size="9" fill="#2563EB">Query both indices</text>

  <!-- ⑦ ES → Dashboard -->
  <path d="M 480 635 L 480 510" fill="none" stroke="#059669" stroke-width="2.5" marker-end="url(#arrow)"/>
  <rect x="459" y="560" width="42" height="16" rx="8" fill="#059669"/>
  <text x="463" y="572" font-size="9" font-weight="bold" fill="#FFFFFF">⑦</text>
  <text x="505" y="570" font-size="9" fill="#059669">Query attack records</text>

  <!-- Auto Setup → ES (dashed) -->
  <line x1="945" y1="420" x2="720" y2="635" stroke="#6B7280" stroke-width="1.5" stroke-dasharray="5,4" marker-end="url(#arrow)"/>
  <text x="870" y="535" font-size="9" fill="#6B7280">Create templates</text>

  <!-- Auto Setup → Kibana -->
  <line x1="945" y1="420" x2="945" y2="352" stroke="#6B7280" stroke-width="1.5" stroke-dasharray="5,4"/>
  <text x="900" y="390" font-size="9" fill="#6B7280">Create data views</text>

  <!-- ═══════════ EXTERNAL: Claude API ═══════════ -->
  <ellipse cx="1035" cy="34" rx="55" ry="20" fill="#E8F5E9" stroke="#43A047" stroke-width="1" stroke-dasharray="4,3"/>
  <text x="1015" y="38" font-size="9" font-weight="bold" fill="#2E7D32">Claude API</text>
  <path d="M 140 340 C 140 180, 1020 55, 990 40" fill="none" stroke="#6B7280" stroke-width="1" stroke-dasharray="4,3" marker-end="url(#arrow)"/>
  <text x="540" y="140" font-size="8" fill="#94A3B8">Attack analysis + remediation planning</text>

  <!-- ═══════════ PHASE 1 BAR ═══════════ -->
  <rect x="0" y="175" width="24" height="400" rx="4" fill="#2563EB"/>
  <text x="6" y="340" font-size="10" font-weight="bold" fill="#FFFFFF" transform="rotate(-90,12,380)">PHASE 1: docker compose up -d + docker compose --profile setup up init-setup</text>
</svg>
